<svg width="118" height="194" viewBox="0 0 118 194" fill="none" xmlns="http://www.w3.org/2000/svg">
<line x1="81.6953" y1="1.71882" x2="63.6953" y2="50.8892" stroke="black" stroke-width="10"/>
<line x1="54.5587" y1="19.9461" x2="73.5587" y2="62.1165" stroke="black" stroke-width="10"/>
<path d="M115.5 79.5C115.5 95.0432 103.334 107.5 88.5 107.5C73.6662 107.5 61.5 95.0432 61.5 79.5C61.5 63.9568 73.6662 51.5 88.5 51.5C103.334 51.5 115.5 63.9568 115.5 79.5Z" fill="#7A27CD" stroke="black" stroke-width="5"/>
<path d="M86.5 71.5C86.5 87.0432 74.3338 99.5 59.5 99.5C44.6662 99.5 32.5 87.0432 32.5 71.5C32.5 55.9568 44.6662 43.5 59.5 43.5C74.3338 43.5 86.5 55.9568 86.5 71.5Z" fill="#7A27CD" stroke="black" stroke-width="5"/>
<path d="M65.5 139.5C65.5 155.043 53.3338 167.5 38.5 167.5C23.6662 167.5 11.5 155.043 11.5 139.5C11.5 123.957 23.6662 111.5 38.5 111.5C53.3338 111.5 65.5 123.957 65.5 139.5Z" fill="#7A27CD" stroke="black" stroke-width="5"/>
<path d="M104.5 139.5C104.5 155.043 92.3338 167.5 77.5 167.5C62.6662 167.5 50.5 155.043 50.5 139.5C50.5 123.957 62.6662 111.5 77.5 111.5C92.3338 111.5 104.5 123.957 104.5 139.5Z" fill="#7A27CD" stroke="black" stroke-width="5"/>
<path d="M65.5 79.5C65.5 95.0432 53.3338 107.5 38.5 107.5C23.6662 107.5 11.5 95.0432 11.5 79.5C11.5 63.9568 23.6662 51.5 38.5 51.5C53.3338 51.5 65.5 63.9568 65.5 79.5Z" fill="#7A27CD" stroke="black" stroke-width="5"/>
<path d="M115.5 109.5C115.5 125.043 103.334 137.5 88.5 137.5C73.6662 137.5 61.5 125.043 61.5 109.5C61.5 93.9568 73.6662 81.5 88.5 81.5C103.334 81.5 115.5 93.9568 115.5 109.5Z" fill="#7A27CD" stroke="black" stroke-width="5"/>
<path d="M56.5 109.5C56.5 125.043 44.3338 137.5 29.5 137.5C14.6662 137.5 2.5 125.043 2.5 109.5C2.5 93.9568 14.6662 81.5 29.5 81.5C44.3338 81.5 56.5 93.9568 56.5 109.5Z" fill="#7A27CD" stroke="black" stroke-width="5"/>
<path d="M86.5 94.5C86.5 110.043 74.3338 122.5 59.5 122.5C44.6662 122.5 32.5 110.043 32.5 94.5C32.5 78.9568 44.6662 66.5 59.5 66.5C74.3338 66.5 86.5 78.9568 86.5 94.5Z" fill="#7A27CD" stroke="black" stroke-width="5"/>
<path d="M86.5 124.5C86.5 140.043 74.3338 152.5 59.5 152.5C44.6662 152.5 32.5 140.043 32.5 124.5C32.5 108.957 44.6662 96.5 59.5 96.5C74.3338 96.5 86.5 108.957 86.5 124.5Z" fill="#7A27CD" stroke="black" stroke-width="5"/>
<path d="M86.5 163.5C86.5 179.043 74.3338 191.5 59.5 191.5C44.6662 191.5 32.5 179.043 32.5 163.5C32.5 147.957 44.6662 135.5 59.5 135.5C74.3338 135.5 86.5 147.957 86.5 163.5Z" fill="#7A27CD" stroke="black" stroke-width="5"/>
</svg>
