<svg width="241" height="244" viewBox="0 0 241 244" fill="none" xmlns="http://www.w3.org/2000/svg">
<path d="M238.5 114.5C238.5 176.387 188.996 226.5 128 226.5C67.0035 226.5 17.5 176.387 17.5 114.5C17.5 52.6129 67.0035 2.5 128 2.5C188.996 2.5 238.5 52.6129 238.5 114.5Z" fill="#C65504" fill-opacity="0.67" stroke="black" stroke-width="5"/>
<ellipse cx="156" cy="42" rx="11" ry="12" fill="#DCAC89"/>
<ellipse cx="189" cy="54" rx="11" ry="12" fill="#DCAC89"/>
<ellipse cx="183" cy="126" rx="11" ry="12" fill="#DCAC89"/>
<ellipse cx="200" cy="102" rx="11" ry="12" fill="#DCAC89"/>
<ellipse cx="117" cy="42" rx="11" ry="12" fill="#DCAC89"/>
<ellipse cx="200" cy="85" rx="11" ry="12" fill="#DCAC89"/>
<ellipse cx="167" cy="97" rx="11" ry="12" fill="#DCAC89"/>
<ellipse cx="161" cy="73" rx="11" ry="12" fill="#DCAC89"/>
<g filter="url(#filter0_if)">
<path d="M207.903 195.464C189.247 214.367 164.652 226.06 138.381 228.516C112.109 230.972 85.818 224.036 64.0642 208.91C42.3104 193.784 26.4655 171.422 19.2763 145.701C12.087 119.979 14.0066 92.5195 24.7023 68.0816L128 114.5L207.903 195.464Z" fill="black" fill-opacity="0.04"/>
</g>
<defs>
<filter id="filter0_if" x="-6.10352e-05" y="53.0816" width="222.903" height="190.919" filterUnits="userSpaceOnUse" color-interpolation-filters="sRGB">
<feFlood flood-opacity="0" result="BackgroundImageFix"/>
<feBlend mode="normal" in="SourceGraphic" in2="BackgroundImageFix" result="shape"/>
<feColorMatrix in="SourceAlpha" type="matrix" values="0 0 0 0 0 0 0 0 0 0 0 0 0 0 0 0 0 0 127 0" result="hardAlpha"/>
<feOffset dy="4"/>
<feGaussianBlur stdDeviation="2"/>
<feComposite in2="hardAlpha" operator="arithmetic" k2="-1" k3="1"/>
<feColorMatrix type="matrix" values="0 0 0 0 0 0 0 0 0 0 0 0 0 0 0 0 0 0 0.25 0"/>
<feBlend mode="normal" in2="shape" result="effect1_innerShadow"/>
<feGaussianBlur stdDeviation="7.5" result="effect2_foregroundBlur"/>
</filter>
</defs>
</svg>
