<svg width="148" height="250" viewBox="0 0 148 250" fill="none" xmlns="http://www.w3.org/2000/svg">
<path d="M43.5 3.5L76.5 23V48L108 40.5" stroke="black" stroke-width="7"/>
<path d="M128.5 123C128.5 144.065 122.257 163.036 112.287 176.679C102.315 190.325 88.7485 198.5 74 198.5C59.2515 198.5 45.685 190.325 35.7134 176.679C25.7431 163.036 19.5 144.065 19.5 123C19.5 101.935 25.7431 82.9642 35.7134 69.3207C45.685 55.6753 59.2515 47.5 74 47.5C88.7485 47.5 102.315 55.6753 112.287 69.3207C122.257 82.9642 128.5 101.935 128.5 123Z" fill="#54BE00" stroke="black" stroke-width="5"/>
<path d="M145.5 170C145.5 212.989 113.308 247.5 74 247.5C34.6916 247.5 2.5 212.989 2.5 170C2.5 127.011 34.6916 92.5 74 92.5C113.308 92.5 145.5 127.011 145.5 170Z" fill="#54BE00" stroke="black" stroke-width="5"/>
<path d="M24.5 116C41.1667 98.3333 84.1 73.6 122.5 116" stroke="#54BE00" stroke-width="9"/>
<path d="M21.9077 111.314C21.946 112.848 22.2567 114.276 22.2567 115.852" stroke="black" stroke-linecap="round" stroke-linejoin="round"/>
<ellipse cx="73.5" cy="221.5" rx="44.5" ry="20.5" fill="#48A400" fill-opacity="0.18"/>
<ellipse cx="60" cy="195.5" rx="44" ry="37.5" fill="#48A400" fill-opacity="0.44"/>
<circle cx="73.5" cy="67.5" r="13.5" fill="#48A400" fill-opacity="0.69"/>
<ellipse cx="97.5" cy="81.5" rx="10.5" ry="8.5" fill="#48A400" fill-opacity="0.69"/>
</svg>
