<svg width="257" height="254" viewBox="0 0 257 254" fill="none" xmlns="http://www.w3.org/2000/svg">
<path d="M128.5 3.20193L156.4 88.0671L156.626 88.7548H157.35H247.604L174.597 141.178L174.001 141.606L174.23 142.303L202.123 227.144L129.083 174.697L128.5 174.279L127.917 174.697L54.8773 227.144L82.7696 142.303L82.9987 141.606L82.4029 141.178L9.39635 88.7548H99.6499H100.374L100.6 88.0671L128.5 3.20193Z" fill="#DDFF0E" stroke="black" stroke-width="2"/>
<path d="M127.5 127L128.5 1.5" stroke="black" stroke-width="2"/>
<path d="M127.5 127L245 90" stroke="black" stroke-width="2"/>
<path d="M201 225.5L127.5 127" stroke="black" stroke-width="2"/>
<path d="M54.5 228L127.566 126.704" stroke="black" stroke-width="2"/>
<path d="M127.954 127.202L11.5 89.5" stroke="black" stroke-width="2"/>
</svg>
