<svg width="290" height="312" viewBox="0 0 290 312" fill="none" xmlns="http://www.w3.org/2000/svg">
<path d="M200.655 81.2439C195.181 84.2773 189.782 86.1315 185.504 86.7038C183.362 86.9904 181.554 86.9481 180.177 86.6103C178.801 86.2729 177.956 85.6702 177.534 84.9086C177.112 84.147 177.049 83.111 177.493 81.7659C177.936 80.4193 178.859 78.8641 180.238 77.1997C182.992 73.876 187.426 70.282 192.901 67.2486C198.376 64.2152 203.774 62.361 208.052 61.7887C210.194 61.5022 212.002 61.5444 213.379 61.8822C214.755 62.2196 215.6 62.8224 216.022 63.584C216.444 64.3455 216.507 65.3815 216.063 66.7266C215.62 68.0732 214.697 69.6284 213.318 71.2928C210.565 74.6165 206.13 78.2106 200.655 81.2439Z" fill="#41CA00" fill-opacity="0.99" stroke="black" stroke-width="2"/>
<path d="M180.91 59.2856C180.66 65.5394 179.441 71.1159 177.709 75.0691C176.841 77.0487 175.866 78.5718 174.862 79.5731C173.86 80.5734 172.906 80.9825 172.036 80.9476C171.166 80.9127 170.248 80.4287 169.329 79.3514C168.408 78.2729 167.558 76.6767 166.852 74.634C165.441 70.5549 164.673 64.8988 164.923 58.6449C165.174 52.3911 166.393 46.8146 168.125 42.8614C168.993 40.8818 169.968 39.3587 170.971 38.3574C171.974 37.3571 172.928 36.948 173.798 36.9829C174.668 37.0178 175.586 37.5019 176.505 38.5791C177.426 39.6576 178.275 41.2538 178.982 43.2965C180.392 47.3756 181.161 53.0317 180.91 59.2856Z" fill="#41CA00" fill-opacity="0.99" stroke="black" stroke-width="2"/>
<path d="M173.343 43.4876C174.245 44.4107 177.314 47.3636 177.116 49.0589C176.952 50.4561 175.822 51.4417 175.99 52.9295C176.215 54.9258 174.414 59.4025 175.272 60.9686C175.988 62.2758 173.406 66.4959 172.84 67.8545C171.457 71.1734 171.45 71.7888 173.649 74.3359" stroke="black" stroke-linecap="round" stroke-linejoin="round"/>
<path d="M208.487 68.6706C203.198 71.7518 197.802 74.9254 192.31 77.5312C189.081 79.0632 186.584 79.1018 184.803 83.3741" stroke="black" stroke-linecap="round" stroke-linejoin="round"/>
<path d="M231.183 213.053C209.282 265.59 149.576 290.625 97.8658 269.069C46.1556 247.513 21.9105 187.482 43.8112 134.945C65.7119 82.4076 125.418 57.3724 177.128 78.9284C228.838 100.484 253.084 160.516 231.183 213.053Z" fill="#309700" stroke="black" stroke-width="5"/>
<path d="M125.211 106.998C125.765 94.4006 136.06 86.8174 143.627 80.7974C145.739 83.7012 148.389 90.1417 147.172 94.5091C145.915 99.0198 143.965 103.458 142.722 108.156C142.06 110.658 141.215 114.266 141.104 116.802C141.033 118.414 141.643 118.995 141.155 120.745C140.311 123.777 139.818 125.829 138.122 128.274C136.162 131.1 135.359 135.949 133.76 139.154C130.893 144.903 130.029 153.424 128.339 159.767C126.761 165.692 127.535 173.844 124.714 179.227C122.79 182.9 118.947 183.926 116.143 184.954C112.742 186.201 110.83 187.703 108.272 191.134C103.437 197.622 101.965 210.889 99.552 218.943C98.3526 222.946 96.3575 226.625 95.6164 230.873C94.8823 235.08 95.3321 238.731 94.1366 243.021C92.4211 249.177 90.3125 253.017 85.4825 255.496C80.0389 258.291 78.0989 250.842 77.2645 245.504C76.5112 240.685 81.9379 232.992 84.412 229.146C86.7257 225.549 89.0809 224.004 90.4223 219.19C91.5646 215.091 92.4161 211.152 92.6696 206.997C93.0836 200.211 92.5014 193.945 93.5118 187.072C94.897 177.651 96.0548 170.897 102.297 163.675C109.51 155.331 118.329 152.629 124.543 142.168C131.747 130.038 124.684 118.969 125.211 106.998Z" fill="#195000" fill-opacity="0.99"/>
<path d="M134.037 237.15C129.79 248.43 121.87 255.389 115.909 260.902C115.681 258.34 116.274 252.622 118.298 248.694C120.389 244.637 122.83 240.634 124.972 236.409C126.113 234.16 127.699 230.918 128.554 228.646C129.097 227.204 128.951 226.693 129.762 225.119C131.168 222.393 132.076 220.548 133.755 218.332C135.697 215.771 137.65 211.419 139.515 208.524C142.861 203.333 145.997 195.694 148.895 189.991C151.603 184.663 153.742 177.383 156.947 172.519C159.135 169.2 161.526 168.218 163.358 167.251C165.58 166.078 167.08 164.702 169.533 161.588C174.17 155.703 179.122 143.807 182.946 136.561C184.847 132.959 187.074 129.634 188.805 125.821C190.519 122.045 191.421 118.785 193.41 114.927C196.263 109.39 198.602 105.919 201.98 103.62C205.787 101.028 204.496 107.659 203.272 112.421C202.167 116.72 196.834 123.694 194.296 127.177C191.923 130.434 190.17 131.856 187.939 136.186C186.039 139.872 184.346 143.411 182.907 147.133C180.556 153.212 178.906 158.807 176.207 164.973C172.508 173.426 169.767 179.488 164.142 186.055C157.643 193.642 152.047 196.208 145.423 205.672C137.741 216.646 138.074 226.43 134.037 237.15Z" fill="#195000" fill-opacity="0.99"/>
<path d="M85.8666 205.382C85.1712 215.853 76.8801 222.202 70.7775 227.24C69.1674 224.837 67.2049 219.498 68.256 215.863C69.3416 212.109 70.9734 208.412 72.0518 204.502C72.626 202.42 73.3677 199.418 73.5077 197.31C73.5966 195.971 73.1262 195.49 73.5474 194.034C74.277 191.51 74.7079 189.803 76.0982 187.763C77.7051 185.406 78.4393 181.373 79.768 178.702C82.1513 173.912 83.0081 166.827 84.4733 161.548C85.842 156.617 85.3971 149.847 87.7359 145.361C89.3319 142.3 92.39 141.43 94.6266 140.563C97.3397 139.51 98.8814 138.253 100.973 135.39C104.927 129.977 106.361 118.945 108.433 112.241C109.463 108.909 111.115 105.843 111.787 102.31C112.453 98.8104 112.172 95.7785 113.205 92.2083C114.686 87.0849 116.431 83.8842 120.299 81.8014C124.658 79.454 126.039 85.6344 126.589 90.0658C127.086 94.0668 122.64 100.485 120.606 103.692C118.704 106.692 116.811 107.987 115.653 111.993C114.666 115.405 113.913 118.682 113.628 122.135C113.162 127.777 113.494 132.98 112.554 138.696C111.267 146.531 110.214 152.149 105.133 158.179C99.263 165.146 92.238 167.433 87.1139 176.155C81.1725 186.267 86.5273 195.432 85.8666 205.382Z" fill="#195000" fill-opacity="0.99"/>
<path d="M115.378 236.233C113.127 249.36 99.1307 254.14 88.7894 258.126C86.4657 254.398 83.8947 246.768 85.9759 242.538C88.1255 238.17 91.1456 234.095 93.3004 229.524C94.4478 227.091 95.9637 223.546 96.4171 220.903C96.705 219.224 96.0021 218.418 96.8361 216.723C98.2807 213.788 99.1575 211.775 101.61 209.725C104.445 207.356 106.061 202.488 108.483 199.605C112.828 194.434 114.971 185.708 117.895 179.54C120.627 173.779 120.647 164.93 124.887 160.131C127.781 156.856 132.784 156.977 136.467 156.77C140.936 156.519 143.547 155.532 147.215 152.711C154.148 147.377 157.647 133.83 161.698 126.083C163.713 122.232 166.696 118.973 168.159 114.721C169.608 110.509 169.486 106.513 171.53 102.359C174.464 96.3966 177.611 93.0031 184.045 91.8987C191.296 90.654 192.842 99.1261 193.244 105.023C193.608 110.347 185.776 116.769 182.164 120.054C178.786 123.127 175.608 124.02 173.314 128.682C171.36 132.652 169.796 136.544 168.963 140.851C167.604 147.887 167.572 154.684 165.445 161.624C162.529 171.137 160.23 177.904 151.421 183.573C141.243 190.123 129.72 190.213 120.55 199.311C109.917 209.86 117.518 223.759 115.378 236.233Z" fill="#195000" fill-opacity="0.99"/>
<path d="M78.8485 107.857C77.9299 99.4714 88.013 95.6178 95.3698 92.4857C97.9734 94.6872 101.575 99.326 100.799 102.11C99.9976 104.986 98.4474 107.73 97.6834 110.733C97.2767 112.332 96.8069 114.651 96.9919 116.34C97.1093 117.412 97.8307 117.876 97.5198 118.992C96.9812 120.924 96.7018 122.242 95.1841 123.679C93.4299 125.34 93.1533 128.498 91.8308 130.456C89.4588 133.969 89.5581 139.583 88.5142 143.636C87.539 147.422 89.3423 152.984 86.9765 156.258C85.362 158.491 81.3817 158.719 78.5117 159.073C75.0301 159.502 73.1688 160.28 70.8492 162.276C66.4641 166.049 66.4831 174.774 64.8722 179.888C64.0715 182.43 62.3823 184.659 62.1003 187.42C61.8209 190.155 62.7387 192.659 61.9766 195.394C60.8829 199.318 59.0919 201.642 54.2323 202.726C48.7552 203.949 45.7912 198.719 44.2606 195.037C42.8786 191.714 47.7503 187.203 49.9308 184.919C51.9699 182.783 54.2992 182.029 55.1544 178.96C55.8827 176.347 56.3196 173.806 56.0922 171.048C55.7208 166.545 54.3482 162.272 54.6031 157.781C54.9527 151.626 55.3793 147.234 61.1783 143.137C67.8785 138.403 76.971 137.647 82.3509 131.373C88.5888 124.099 79.7216 115.826 78.8485 107.857Z" fill="#195000" fill-opacity="0.99"/>
<path d="M199.508 245.281C200.296 253.68 190.154 257.376 182.749 260.393C180.18 258.151 176.652 253.457 177.471 250.685C178.317 247.822 179.91 245.103 180.72 242.112C181.152 240.519 181.658 238.207 181.499 236.516C181.399 235.442 180.684 234.967 181.013 233.856C181.581 231.932 181.881 230.619 183.421 229.206C185.201 227.572 185.527 224.42 186.88 222.482C189.306 219.006 189.294 213.392 190.401 209.355C191.435 205.585 189.719 199.995 192.136 196.759C193.785 194.551 197.768 194.386 200.643 194.077C204.131 193.702 206.004 192.953 208.355 190.993C212.798 187.289 212.915 178.565 214.606 173.476C215.446 170.947 217.169 168.744 217.495 165.988C217.817 163.258 216.938 160.74 217.743 158.018C218.897 154.111 220.724 151.815 225.6 150.807C231.096 149.67 233.978 154.946 235.451 158.65C236.781 161.995 231.839 166.429 229.624 168.679C227.551 170.783 225.211 171.501 224.308 174.556C223.539 177.158 223.062 179.691 223.247 182.452C223.548 186.961 224.854 191.255 224.529 195.74C224.083 201.889 223.588 206.275 217.726 210.281C210.953 214.91 201.85 215.523 196.373 221.713C190.022 228.889 198.759 237.299 199.508 245.281Z" fill="#195000" fill-opacity="0.99"/>
<path d="M170.64 250.595C168.229 260.764 161.021 266.987 155.649 271.921C154.911 269.599 154.449 264.43 155.877 260.894C157.352 257.242 159.216 253.641 160.714 249.838C161.512 247.813 162.599 244.893 163.084 242.845C163.393 241.545 163.137 241.081 163.709 239.665C164.701 237.21 165.326 235.549 166.711 233.559C168.313 231.26 169.583 227.339 171.038 224.737C173.649 220.07 175.563 213.186 177.593 208.051C179.488 203.254 180.394 196.685 182.918 192.314C184.64 189.331 187.031 188.464 188.821 187.606C190.993 186.566 192.348 185.335 194.395 182.54C198.266 177.257 201.319 166.537 204.051 160.015C205.408 156.773 207.172 153.784 208.305 150.35C209.428 146.948 209.774 144.006 211.177 140.533C213.19 135.549 215.046 132.429 218.249 130.38C221.858 128.07 221.743 134.061 221.339 138.359C220.974 142.239 216.561 148.501 214.493 151.63C212.559 154.555 210.941 155.825 209.367 159.723C208.027 163.042 206.881 166.228 206.044 169.583C204.679 175.063 203.975 180.112 202.25 185.668C199.886 193.283 198.095 198.744 193.289 204.634C187.737 211.439 182.192 213.709 176.865 222.212C170.688 232.071 172.932 240.931 170.64 250.595Z" fill="#195000" fill-opacity="0.99"/>
</svg>
